<svg xmlns="http://www.w3.org/2000/svg" viewBox="0 0 32 32">
  <rect x="0" y="0" width="32" height="32" rx="6" ry="6" fill="#0F0F0F"/>
  <path fill="#E25227" d="M16 6 C16 6 20 10 20 14 C20 16 19 18 17 19 C18 17 17.5 15.5 16.5 14.5 C16.5 14.5 17 16.5 16 18 C15 19.5 16 20.5 16 20.5 C14 19.5 12.5 17 12.5 15 C12.5 11 16 6 16 6Z"/>
  <path fill="#F0912D" d="M18 12 C18.5 13.5 19 15 18.5 17 C18 18.5 17 19.5 16 20 C15.5 18.5 15.5 17 16 15.5 C16.5 14 17.5 12.5 18 12Z"/>
  <path fill="#5C2E1A" d="M9 23 L16 26 L23 23 L23 25 L16 28 L9 25 Z"/>
</svg>
