<svg viewBox="0 0 1024 760" xmlns="http://www.w3.org/2000/svg">
  <defs>
    <linearGradient id="bookGrad" x1="509" y1="739" x2="512" y2="609" gradientUnits="userSpaceOnUse">
      <stop offset="0" stop-color="#501D0F"/>
      <stop offset="1" stop-color="#89492B"/>
    </linearGradient>
  </defs>
  <path fill="#E25227" d="M495.154 288.138C498.378 289.608 505.914 297.445 508.313 300.3C526.269 321.669 539.502 342.79 542.378 370.879C549.115 436.662 490.007 467.903 476.848 526.209C472.415 545.849 474.731 568.443 482.366 587.122C483.763 590.541 490.702 602.324 490.569 604.62L489.492 604.081C466.698 587.526 440.031 561.25 430.639 534.248C403.556 456.377 485.481 402.143 496.346 330.247C498.679 314.804 498.133 303.222 495.154 288.138Z"/>
  <path fill="url(#bookGrad)" d="M679.512 611.655C679.948 623.671 679.803 636.504 679.711 648.539C679.819 650.345 679.874 650.354 679.431 652.203C678.578 653.105 645.852 669.482 641.946 671.541L551.504 719.091C543.78 723.161 536.109 727.33 528.491 731.597C523.974 734.127 516.055 738.826 511.383 740.578C504.39 737.13 495.509 731.912 488.494 728.114L438.452 701.202C418.928 690.993 399.491 680.618 380.143 670.078C368.598 663.83 355.674 656.975 344.543 650.136C344.526 637.556 344.602 624.446 344.219 611.898C359.414 619.412 379.065 631.083 394.357 639.52L470.64 681.021C479.247 685.796 487.81 690.649 496.33 695.578C500.794 698.136 506.902 701.896 511.48 703.945C532.487 690.677 560.415 676.473 582.602 664.63C615.066 647.267 647.37 629.608 679.512 611.655Z"/>
  <path fill="#F0912D" d="M567.225 404.156C568.003 404.556 568.509 404.868 568.965 405.666C588.192 439.301 602.938 484.462 595.366 523.183C587.91 561.316 558.078 585.951 527.823 605.935L518.591 611.429C510.152 597.693 506.392 586.985 503.912 571.209C497.26 528.911 522.684 499.522 542.221 465.408C552.466 447.518 562.786 424.502 567.225 404.156Z"/>
  <path fill="#F0912D" d="M359.24 550.125C365.269 552.715 379.71 564.412 385.223 568.751C425.497 600.45 464.809 634.729 496.049 675.611C499.494 680.119 508.175 690.937 510.126 695.939C503.857 692.741 497.548 689.208 491.532 685.547C448.751 659.511 402.641 638.037 359.663 612.561C359.387 591.884 359.872 570.732 359.24 550.125Z"/>
  <path fill="#F0912D" d="M664.174 549.059L664.428 593.205C664.417 599.159 664.625 607.179 664.213 612.947C655.817 616.909 647.229 621.897 639.067 626.408L603.341 646.032C582.669 657.264 562.058 668.608 541.509 680.063C534.744 683.835 526.75 687.959 520.246 691.793C518.071 693.047 515.906 694.089 513.66 695.2L519.513 687.005C556.887 634.717 612.459 587.041 664.174 549.059Z"/>
</svg>
